:SAMPLES-PER-SECOND 24
:FULLY-SPECIFIED
:DEGREES
296
root  -1.25565 40.4553 21.4119 172.821 71.1513 176.682
RightUpLeg  3.98326 -13.0875 -18.0028
RightLeg  23.8263 5.69813 2.53226
RightFoot  4.39468 -2.42086 17.631
RightToes  -1.74623e-010 0 -2.59999e-017
Spine  2.10624 3.63664 2.98548
Spine1  12.5318 4.93391 -4.7345
HEad  -20.4961 54.6924 -24.9667
LeftShoulder1  1.55418 -2.54361 -19.1829
LeftArm  12.7422 17.7808 -41.4038
LeftForeArm  16.5075 -48.1261 -11.3
LeftHand  -0.218328 3.17579 10.9516
RightShoulder  2.88775 5.35277 26.6
RightArm  2.17812 -24.2853 36.3476
RightForeArm  143.394 64.2161 156.871
RightHand  -0.0228712 -6.82604 -1.18053
LeftUpLeg  -6.37959 7.80058 12.5682
LeftLeg  21.2517 -2.14413 -0.594246
LeftFoot  12.2901 2.24429 -11.128
LeftToes  -6.27559e-011 -2.10356e-011 8.24929e-012
297
root  -1.43796 38.713 21.4895 172.42 70.4856 176.144
RightUpLeg  2.18554 -13.9141 -18.8347
RightLeg  30.93 5.80042 3.52355
RightFoot  -9.33579 -0.391848 17.8376
RightToes  -1.74623e-010 0 -2.59999e-017
Spine  3.49038 3.43409 1.76657
Spine1  11.8475 4.38289 -4.21424
HEad  -23.5682 53.7015 -26.9517
LeftShoulder1  1.56627 -2.59863 -19.1463
LeftArm  12.8176 12.4921 -40.1736
LeftForeArm  14.1357 -47.7018 -11.2969
LeftHand  -0.188325 3.40073 10.3111
RightShoulder  2.86101 5.26979 26.6088
RightArm  -1.89614 -18.0795 34.2548
RightForeArm  136.299 67.3994 152.613
RightHand  -0.00345257 -6.26955 -3.80189
LeftUpLeg  -10.1168 8.86411 12.9617
LeftLeg  30.0884 -3.80042 -2.03769
LeftFoot  -1.41774 1.15406 -13.1725
LeftToes  -6.27559e-011 -2.10356e-011 8.24929e-012
298
root  -1.70311 37.2047 21.6171 172.419 69.6021 176.212
RightUpLeg  0.280986 -14.8604 -19.4462
RightLeg  37.1643 6.15035 4.73445
RightFoot  -19.1757 1.00318 16.5219
RightToes  -1.74623e-010 0 -2.59999e-017
Spine  4.50734 2.90822 0.553983
Spine1  13.2625 3.52608 -3.44375
HEad  -30.302 52.5447 -31.5618
LeftShoulder1  1.67984 -2.7369 -20.4864
LeftArm  11.9666 5.19769 -38.3043
LeftForeArm  14.3129 -45.4933 -10.4005
LeftHand  -0.13683 4.21744 12.2888
RightShoulder  3.06177 5.37046 28.5599
RightArm  -6.75992 -8.60112 32.0175
RightForeArm  123.454 74.1838 137.645
RightHand  0.0955319 -7.61066 -7.13188
LeftUpLeg  -13.7252 9.51006 13.179
LeftLeg  37.2592 -4.16205 -3.00358
LeftFoot  -11.1332 0.0959002 -13.0063
LeftToes  -6.27559e-011 -2.10356e-011 8.24929e-012
299
root  -1.73234 36.8902 21.6352 174.117 69.7059 177.718
RightUpLeg  -0.227119 -14.9857 -18.9117
RightLeg  37.7708 6.38152 5.02595
RightFoot  -20.7219 1.23179 16.6303
RightToes  -1.74623e-010 0 -2.59999e-017
Spine  4.07499 2.76821 0.575329
Spine1  14.9373 3.27825 -2.86062
HEad  -34.4214 51.8833 -34.6318
LeftShoulder1  1.77217 -2.90276 -21.284
LeftArm  10.2782 2.08 -39.0137
LeftForeArm  17.4632 -42.9945 -9.26529
LeftHand  0.0684401 5.84345 19.6892
RightShoulder  3.30377 5.60536 30.3689
RightArm  -10.2007 -4.42048 34.3703
RightForeArm  107.815 78.9368 111.907
RightHand  0.794602 -12.0307 -14.3894
LeftUpLeg  -14.5677 9.81408 13.6735
LeftLeg  38.3408 -3.63354 -2.68877
LeftFoot  -12.1273 -0.00990428 -11.9686
LeftToes  -6.27559e-011 -2.10356e-011 8.24929e-012
300
root  -1.37545 37.9909 21.4603 176.171 71.6013 179.166
RightUpLeg  1.61171 -14.8289 -18.2507
RightLeg  31.4746 7.95625 4.97142
RightFoot  -14.9553 0.465124 17.8472
RightToes  -1.74623e-010 0 -2.59999e-017
Spine  2.42378 3.33129 1.60644
Spine1  14.8503 3.97881 -3.09477
HEad  -32.4842 52.7719 -34.2357
LeftShoulder1  1.73875 -2.82615 -21.0768
LeftArm  9.21203 6.62958 -41.5871
LeftForeArm  17.0118 -43.5288 -9.48712
LeftHand  0.189515 6.26085 25.177
RightShoulder  3.37616 5.69715 30.8003
RightArm  -9.80762 -9.78765 39.3415
RightForeArm  115.656 78.8819 115.077
RightHand  1.91981 -15.3501 -22.3928
LeftUpLeg  -11.3599 10.7812 14.146
LeftLeg  32.5382 -3.34867 -1.93713
LeftFoot  -7.31589 0.514787 -13.0159
LeftToes  -6.27559e-011 -2.10356e-011 8.24929e-012
301
root  -0.912465 39.7629 21.2088 176.404 74.7352 178.874
RightUpLeg  3.94301 -13.9765 -18.1486
RightLeg  22.284 10.7843 4.59652
RightFoot  -1.90341 -1.49388 17.8992
RightToes  -1.74623e-010 0 -2.59999e-017
Spine  1.2596 3.89519 2.47159
Spine1  13.171 4.79846 -3.86694
HEad  -27.9814 55.4465 -31.8631
LeftShoulder1  1.64545 -2.47418 -21.1381
LeftArm  8.98645 15.232 -42.1647
LeftForeArm  15.1411 -47.0664 -10.9687
LeftHand  -0.187415 4.38904 21.6414
RightShoulder  3.4798 5.81814 31.4406
RightArm  -5.16129 -18.2164 40.2457
RightForeArm  130.429 75.7362 134.444
RightHand  1.19168 -12.7957 -18.6083
LeftUpLeg  -6.8118 12.2023 14.0701
LeftLeg  24.0672 -2.24376 -0.776047
LeftFoot  3.95279 1.95265 -14.5987
LeftToes  -6.27559e-011 -2.10356e-011 8.24929e-012
302
root  -0.658347 41.1538 21.0284 176.406 77.6959 178.57
RightUpLeg  4.07607 -11.3945 -17.6
RightLeg  16.5824 10.1746 3.25785
RightFoot  10.2115 -3.37031 17.9285
RightToes  -1.74623e-010 0 -2.59999e-017
Spine  0.693604 4.05421 3.60623
Spine1  12.0024 5.31359 -4.47
HEad  -25.3354 57.8221 -29.7196
LeftShoulder1  1.61519 -2.28505 -21.5344
LeftArm  8.16098 22.3088 -40.9473
LeftForeArm  17.8858 -51.079 -12.5349
LeftHand  -0.375536 2.48257 14.8338
RightShoulder  3.54477 5.92915 31.6959
RightArm  -0.051782 -23.0707 38.265
RightForeArm  137.683 72.1113 145.222
RightHand  0.0970705 -9.29301 -4.33748
LeftUpLeg  -5.58121 11.9988 13.9552
LeftLeg  20.863 -0.546523 0.110457
LeftFoot  17.4853 3.16073 -12.756
LeftToes  -6.27559e-011 -2.10356e-011 8.24929e-012
303
root  -0.575253 41.8164 20.9274 177.146 79.7646 179.235
RightUpLeg  3.34243 -10.9062 -17.5261
RightLeg  15.8499 6.4278 1.96589
RightFoot  12.1256 -3.66877 17.9404
RightToes  -1.74623e-010 0 -2.59999e-017
Spine  -0.20291 4.23673 5.18007
Spine1  13.1231 5.86266 -4.8844
HEad  -25.863 57.8956 -29.8547
LeftShoulder1  1.66816 -2.49742 -21.4251
LeftArm  7.08394 25.5469 -40.5215
LeftForeArm  22.4896 -54.6483 -14.0222
LeftHand  -0.351172 2.0131 11.9198
RightShoulder  3.35242 5.78867 30.1721
RightArm  2.76849 -24.5864 37.695
RightForeArm  146.851 67.9942 153.047
RightHand  -0.0578734 -6.00794 3.92604
LeftUpLeg  -6.98102 10.7254 14.2067
LeftLeg  22.4389 -1.24928 -0.233699
LeftFoot  21.8041 2.99558 -10.5024
LeftToes  -6.27559e-011 -2.10356e-011 8.24929e-012
304
root  -0.535398 42.0439 20.9656 171.961 81.2492 174.106
RightUpLeg  3.92386 -13.5457 -19.3973
RightLeg  15.0652 4.04394 1.28741
RightFoot  11.5243 -3.52482 17.6953
RightToes  -1.74623e-010 0 -2.59999e-017
Spine  -0.601125 4.4629 4.6744
Spine1  14.6358 6.20844 -5.47173
HEad  -26.8646 57.0748 -30.8093
LeftShoulder1  1.69767 -2.70963 -20.92
LeftArm  7.14533 26.084 -40.445
LeftForeArm  25.0728 -58.0076 -15.8974
LeftHand  -0.27672 2.92665 12.7178
RightShoulder  3.1273 5.53865 28.6489
RightArm  4.05359 -23.8996 35.9736
RightForeArm  152.276 63.2475 158.675
RightHand  -0.0171653 -4.8777 2.31162
LeftUpLeg  -7.45286 10.2517 13.8978
LeftLeg  20.0842 -2.65725 -0.78161
LeftFoot  18.3201 2.70423 -10.6296
LeftToes  -6.27559e-011 -2.10356e-011 8.24929e-012
305
root  -0.569873 41.6494 20.9775 167.15 82.2116 168.966
RightUpLeg  3.65461 -16.9717 -21.4291
RightLeg  15.2457 2.99456 0.984696
RightFoot  14.4422 -4.32197 19.1324
RightToes  -1.74623e-010 0 -2.59999e-017
Spine  -0.0522205 4.33068 4.02046
Spine1  14.0106 6.06208 -5.53901
HEad  -24.8795 56.4574 -28.7127
LeftShoulder1  1.69058 -2.72867 -20.7099
LeftArm  7.50695 25.4005 -39.2055
LeftForeArm  27.3999 -61.0289 -17.966
LeftHand  -0.199036 3.82028 13.9843
RightShoulder  3.05404 5.40685 28.3286
RightArm  2.80467 -21.4509 32.417
RightForeArm  149.992 60.738 160.474
RightHand  -0.0264626 -5.75103 -0.919729
LeftUpLeg  -7.99138 8.96731 14.0248
LeftLeg  14.2474 -3.10207 -0.831175
LeftFoot  17.1797 2.88833 -11.7255
LeftToes  -6.27559e-011 -2.10356e-011 8.24929e-012
306
root  -0.697643 40.4148 20.9668 164.449 83.6366 165.647
RightUpLeg  0.847397 -20.2306 -22.6692
RightLeg  20.5879 3.9676 1.44245
RightFoot  10.45 -3.95429 20.7848
RightToes  -1.74623e-010 0 -2.59999e-017
Spine  0.545558 4.39761 4.32962
Spine1  13.0554 6.31529 -6.19253
HEad  -20.2353 53.5643 -22.9036
LeftShoulder1  1.69096 -2.83531 -20.2303
LeftArm  7.1188 22.9492 -38.207
LeftForeArm  30.1155 -63.6975 -20.1446
LeftHand  -0.167496 4.10478 14.1787
RightShoulder  3.02194 5.33009 28.261
RightArm  -1.74725 -18.4652 29.3906
RightForeArm  143.785 61.1344 159.61
RightHand  -0.0228389 -5.51899 -2.61018
LeftUpLeg  -10.4142 6.08037 15.2478
LeftLeg  14.875 -5.2147 -1.21644
LeftFoot  16.3957 3.48686 -14.3668
LeftToes  -6.27559e-011 -2.10356e-011 8.24929e-012
